<svg width="193" height="193" viewBox="0 0 193 193" fill="none" xmlns="http://www.w3.org/2000/svg">
<path d="M48.0837 38.4212C47.6349 29.9713 45.162 25.6707 38.9169 19.9432C38.2273 19.3107 38.6785 18.1494 39.6132 18.1929C47.1465 18.5436 51.6903 19.8957 56.3007 24.8802C56.9548 25.5874 58.2259 25.133 58.2435 24.1698C58.4785 11.2551 62.2658 6.51271 70.8781 2.13644C71.6955 1.72109 72.569 2.56007 72.2379 3.41508C69.7636 9.80538 69.5979 14.1203 74.6317 20.8851C75.0066 21.3889 75.7547 21.4041 76.1741 20.9366C87.0783 8.78114 97.7528 6.3455 120.622 8.22865C121.57 8.30672 121.879 9.54053 121.082 10.0596C114.605 14.2767 110.628 17.2794 107.755 21.6664C107.247 22.4413 108.047 23.3481 108.922 23.043C124.024 17.7755 136.897 20.5522 152.417 32.4492M48.0837 38.4212C33.4833 33.9773 26.6274 36.2396 18.0656 46.0804C17.4194 46.8233 18.155 47.9356 19.107 47.6844C27.3108 45.5196 31.4128 46.0942 35.8447 49.3947C36.3651 49.7823 36.3449 50.5575 35.827 50.9484C28.0155 56.844 21.95 62.1743 17.2065 67.5888M48.0837 38.4212C32.8624 29.3447 25.6294 21.5838 16.7221 2.59673C16.3929 1.895 15.4226 1.80981 14.9885 2.45198C7.54835 13.4592 3.61654 22.1899 2.40453 29.8677M152.417 32.4492C157.676 36.4808 163.24 41.5598 169.297 47.7279C169.997 48.4408 169.312 49.6477 168.328 49.477C160.423 48.1066 157.777 50.1138 155.078 54.6293C154.787 55.1155 154.976 55.7442 155.477 56.0091C162.312 59.624 167.498 63.2717 171.679 67.5888M152.417 32.4492C164.587 23.3019 168.4 15.8578 173.655 2.75303C173.953 2.00901 174.964 1.89605 175.41 2.56226C182.52 13.1875 186.861 21.887 188.259 29.8677M171.679 67.5888C178.194 74.3168 182.266 82.6704 186.329 95.0594C186.623 95.956 185.615 96.7156 184.817 96.2131C179.507 92.8715 175.555 91.3282 169.16 91.6833C168.286 91.7318 167.949 92.8104 168.608 93.3863C185.573 108.221 191.304 119.028 190.988 141.084C190.976 141.928 189.983 142.364 189.345 141.811C184.718 137.809 181.505 135.401 175.466 134.296C174.877 134.189 174.338 134.646 174.315 135.244C173.467 157.117 167.592 169.007 147.759 187.053C147.105 187.648 146.051 187.157 146.05 186.273C146.041 179.025 144.195 175.484 138.206 171.972C137.77 171.717 137.209 171.846 136.909 172.252C126.311 186.606 117.352 192.067 91.3786 190.831C90.8212 190.804 90.3852 190.321 90.4069 189.764C90.7608 180.687 87.0103 177.401 76.1036 174.405C75.6732 174.286 75.2102 174.471 74.992 174.861C72.3341 179.605 72.4166 183.098 74.7009 189.096C74.9808 189.83 74.3506 190.604 73.5763 190.467C43.448 185.127 30.9619 177.532 26.3916 150.084C26.2726 149.369 25.4574 148.989 24.8627 149.404C20.8224 152.218 18.421 155.175 16.1085 161.847C15.7679 162.83 14.3134 162.767 14.1177 161.745C10.3513 142.086 11.2158 127.58 18.8302 99.1031C19.0058 98.4465 18.4929 97.7952 17.8151 97.846C11.5798 98.3141 7.75762 99.8076 3.42269 104.828C2.74555 105.613 1.38806 105.052 1.54499 104.028C3.91441 88.565 8.15221 77.9237 17.2065 67.5888M171.679 67.5888C185.205 53.5607 190.496 42.6338 188.259 29.8677M17.2065 67.5888C6.65421 53.7797 0.256053 43.478 2.40453 29.8677M2.40453 29.8677L15.9812 23.9873M188.259 29.8677L174.354 23.9873" stroke="#2C6396" stroke-width="3"/>
</svg>
