<svg width="155" height="155" viewBox="0 0 155 155" fill="none" xmlns="http://www.w3.org/2000/svg">
<path d="M39.1714 31.543C38.8275 25.0685 36.9784 21.6797 32.3623 17.3519C31.6797 16.7118 32.1328 15.55 33.067 15.6035C38.4361 15.9107 41.8469 16.9558 45.2196 20.392C45.8944 21.0795 47.1782 20.614 47.2078 19.6511C47.4991 10.1769 50.3654 6.46299 56.681 3.14807C57.4928 2.72196 58.364 3.56006 58.046 4.42C56.3065 9.12391 56.2926 12.4515 59.9787 17.4933C60.3494 18.0003 61.0951 18.0174 61.5169 17.5521C69.9694 8.2259 78.309 6.27403 95.8268 7.65747C96.7751 7.73237 97.084 8.96598 96.2885 9.48768C91.7044 12.4942 88.7603 14.7475 86.5969 17.847C86.0666 18.6067 86.8568 19.5138 87.7354 19.2201C99.4289 15.311 109.47 17.5764 121.54 26.8283M39.1714 31.543C27.9013 28.1129 22.4762 29.7438 15.9225 37.0797C15.2665 37.814 16.0012 38.9244 16.9566 38.6863C22.8664 37.2134 25.9951 37.6699 29.2913 40.0468C29.8176 40.4263 29.7981 41.2032 29.2808 41.5948C23.217 46.185 18.496 50.3451 14.7946 54.5701M39.1714 31.543C27.2441 24.4307 21.5297 18.3417 14.5691 3.59409C14.2383 2.89314 13.2692 2.80937 12.837 3.4528C7.09688 11.9986 4.05441 18.8003 3.10884 24.7903M121.54 26.8283C125.545 29.8988 129.774 33.7387 134.361 38.3778C135.064 39.0883 134.379 40.3031 133.39 40.157C127.802 39.3312 125.763 40.8551 123.753 44.1524C123.458 44.636 123.648 45.2644 124.148 45.5305C129.449 48.351 133.485 51.2026 136.746 54.5701M121.54 26.8283C131.033 19.6927 134.085 13.87 138.159 3.75156C138.458 3.00796 139.467 2.8948 139.911 3.56214C145.395 11.8015 148.747 18.5723 149.836 24.7903M136.746 54.5701C141.79 59.7782 144.979 66.2203 148.125 75.6897C148.422 76.5851 147.416 77.3467 146.612 76.8532C142.802 74.5153 139.809 73.3998 135.244 73.5695C134.369 73.602 134.034 74.682 134.691 75.2603C147.685 86.7064 152.16 95.1918 151.996 112.144C151.988 112.989 150.996 113.426 150.356 112.876C146.939 109.94 144.441 108.14 139.967 107.277C139.38 107.164 138.842 107.62 138.818 108.218C138.121 125.201 133.523 134.553 118.23 148.548C117.578 149.145 116.524 148.653 116.509 147.769C116.418 142.444 114.944 139.733 110.482 137.073C110.048 136.815 109.487 136.943 109.186 137.348C100.896 148.53 93.816 152.808 73.5653 151.876C73.0079 151.851 72.5751 151.366 72.5919 150.808C72.8021 143.847 69.8513 141.27 61.4438 138.94C61.0137 138.821 60.5526 139.006 60.3376 139.397C58.37 142.978 58.4009 145.679 60.0513 150.141C60.3241 150.878 59.6987 151.651 58.9247 151.513C35.5247 147.321 25.7322 141.313 22.0997 120.016C21.9778 119.302 21.1633 118.926 20.5739 119.348C17.7035 121.401 15.9005 123.616 14.2103 128.195C13.8501 129.17 12.3894 129.1 12.2003 128.077C9.42046 113.035 10.166 101.627 16.0018 79.7297C16.1768 79.073 15.6628 78.4241 14.9854 78.4803C10.4933 78.853 7.59754 79.9543 4.46072 83.3551C3.75821 84.1167 2.39344 83.547 2.5581 82.524C4.45251 70.7543 7.80646 62.5466 14.7946 54.5701M136.746 54.5701C147.425 43.4953 151.602 34.8688 149.836 24.7903M14.7946 54.5701C6.46385 43.6682 1.41267 35.5353 3.10884 24.7903M3.10884 24.7903L13.8273 20.1479M149.836 24.7903L138.858 20.1479" stroke="#2C6396" stroke-width="5"/>
</svg>
