<svg width="322" height="384" viewBox="0 0 322 384" fill="none" xmlns="http://www.w3.org/2000/svg">
<path d="M265.342 282.454L263.175 278.515C260.87 274.323 254.986 273.957 252.178 277.83C248.884 282.372 241.773 280.914 240.534 275.441L240.467 275.145C239.291 269.955 232.806 268.17 229.14 272.028L221.781 279.775C219.824 281.834 217.109 283 214.268 283C207.146 283 202.147 290.02 204.477 296.751L211.674 317.544C212.597 320.208 211.72 323.164 209.495 324.895C205.331 328.134 206.477 334.71 211.491 336.349L216.111 337.86C221.258 339.542 223.833 345.296 221.658 350.255L221.425 350.785C218.142 358.27 225.029 366.208 232.903 364.014L236.686 362.96C240.98 361.763 245.581 363.144 248.506 366.508L250.107 368.348C256.887 376.145 269.268 375.195 274.778 366.454L275.262 365.687C277.177 362.65 280.052 360.34 283.431 359.126L295.156 354.912C303.504 351.912 307.888 342.758 304.991 334.374L303.617 330.396C301.925 325.498 303.883 320.084 308.316 317.4C314.228 313.822 315.412 305.742 310.776 300.618L302.355 291.31C301.3 290.145 300.717 288.63 300.717 287.059C300.717 282.658 296.341 279.597 292.207 281.107L276.77 286.742C272.424 288.329 267.571 286.508 265.342 282.454Z" fill="#B5D1EB" fill-opacity="0.5"/>
<path d="M247.497 90.656L245.55 86.408C243.815 82.6235 238.552 82.3239 236.4 85.8872C233.939 89.9601 227.75 88.8436 226.868 84.1675L226.662 83.0777C225.771 78.3539 219.738 76.8675 216.755 80.6365L211.173 87.6875C209.516 89.7799 206.994 91 204.325 91C198.514 91 194.324 96.57 195.934 102.154L202.777 125.876C203.507 128.406 202.754 131.132 200.829 132.928C197.068 136.439 198.257 142.673 203.047 144.553L206.127 145.761C210.718 147.562 213.032 152.698 211.339 157.33L210.764 158.903C208.021 166.406 215.168 173.754 222.745 171.22C226.695 169.899 231.047 171.295 233.491 174.668L234.6 176.198C239.871 183.472 250.948 182.677 255.126 174.725L255.959 173.14C257.366 170.461 259.649 168.346 262.427 167.148L270.171 163.809C278.534 160.202 282.912 150.942 280.393 142.19L279.091 137.669C277.766 133.066 279.465 128.125 283.341 125.31C288.492 121.569 289.573 114.33 285.74 109.247L278.126 99.1485C277.32 98.0787 276.883 96.7753 276.883 95.4355C276.883 90.9864 272.316 88.0009 268.241 89.7862L257.529 94.479C253.702 96.1556 249.238 94.4544 247.497 90.656Z" fill="#B5D1EB" fill-opacity="0.5"/>
<path d="M317.252 264.271L319.717 276.5L312.609 185.5L310.383 157L297.173 173.688C295.516 175.78 292.994 177 290.325 177C284.514 177 280.324 182.57 281.934 188.154L288.777 211.876C289.507 214.406 288.754 217.132 286.829 218.928C283.068 222.439 284.257 228.673 289.047 230.553L292.127 231.761C296.718 233.562 299.032 238.698 297.339 243.33L295.921 247.211C293.518 253.783 299.778 260.219 306.415 257.999C311.178 256.406 316.26 259.347 317.252 264.271Z" fill="#B5D1EB" fill-opacity="0.5"/>
<path d="M55.6517 304.783L51.4811 296.991C47.8441 290.195 39.632 287.285 32.5273 290.273L31.2486 290.811C25.647 293.168 21.8005 298.42 21.2442 304.472L17.1891 348.587C16.8188 352.616 21.1554 355.38 24.651 353.342C25.9583 352.58 27.5412 352.455 28.9523 353L32.045 354.197C37.4846 356.301 43.6468 354.141 46.5831 349.102L50.7524 341.946C52.9162 338.232 53.0753 333.681 51.176 329.826L48.4059 324.202C46.6024 320.541 48.2953 316.119 52.0828 314.598C55.9577 313.042 57.622 308.465 55.6517 304.783Z" fill="#B5D1EB" fill-opacity="0.5"/>
<path d="M80.4967 135.656L78.5496 131.408C76.8151 127.623 71.5523 127.324 69.3995 130.887C66.9388 134.96 60.7502 133.844 59.8679 129.168L59.6623 128.078C58.771 123.354 52.7384 121.867 49.7545 125.637L44.1725 132.688C42.5161 134.78 39.9939 136 37.3253 136C31.5139 136 27.3235 141.57 28.9342 147.154L35.7773 170.876C36.5071 173.406 35.7542 176.132 33.8294 177.928C30.0676 181.439 31.2571 187.673 36.0473 189.553L39.127 190.761C43.7179 192.562 46.0318 197.698 44.3388 202.33L43.7639 203.903C41.0215 211.406 48.1684 218.754 55.7448 216.22C59.6955 214.899 64.0466 216.295 66.4909 219.668L67.5996 221.198C72.8706 228.472 83.9481 227.677 88.126 219.725L88.9587 218.14C90.3658 215.461 92.6491 213.346 95.4273 212.148L103.171 208.809C111.534 205.202 115.912 195.942 113.393 187.19L112.091 182.669C110.766 178.066 112.465 173.125 116.341 170.31C121.492 166.569 122.573 159.33 118.74 154.247L111.126 144.148C110.32 143.079 109.883 141.775 109.883 140.435C109.883 135.986 105.316 133.001 101.241 134.786L90.5293 139.479C86.7022 141.156 82.2375 139.454 80.4967 135.656Z" fill="#B5D1EB" fill-opacity="0.5"/>
<path d="M110.832 325.968L106.749 328.24C103.111 330.264 103.221 335.534 106.941 337.403C111.193 339.539 110.562 345.796 105.968 347.039L104.898 347.329C100.258 348.585 99.2453 354.715 103.235 357.397L110.699 362.413C112.914 363.902 114.327 366.321 114.534 368.982C114.986 374.776 120.866 378.52 126.307 376.48L149.425 367.812C151.891 366.887 154.666 367.426 156.607 369.205C160.4 372.682 166.523 371.011 168.024 366.089L168.989 362.925C170.427 358.208 175.368 355.501 180.118 356.829L181.73 357.279C189.424 359.43 196.194 351.733 193.078 344.377C191.453 340.541 192.507 336.094 195.68 333.395L197.119 332.17C203.96 326.349 202.306 315.367 194.052 311.821L192.407 311.114C189.628 309.92 187.342 307.808 185.931 305.131L181.999 297.671C177.753 289.614 168.18 285.969 159.65 289.162L155.245 290.811C150.758 292.491 145.701 291.182 142.592 287.537C138.462 282.692 131.161 282.177 126.391 286.394L116.916 294.771C115.912 295.658 114.646 296.194 113.311 296.299C108.875 296.645 106.254 301.43 108.351 305.354L113.863 315.668C115.832 319.354 114.484 323.937 110.832 325.968Z" fill="#B5D1EB" fill-opacity="0.5"/>
<path d="M100.772 71.8633L21.2724 71.8635C21.2724 71.8635 8.77235 141.37 21.2724 199.37C33.7724 257.37 12.7737 336.87 21.2724 361.37C29.771 385.87 301.77 390.87 313.271 361.37C324.772 331.87 319.771 255.37 313.271 199.37C306.771 143.37 313.271 71.8636 313.271 71.8636L230.271 71.8635C274.771 34.8661 182.772 -37.6294 167.272 29.3653C142.772 -36.6285 54.2723 48.856 100.772 71.8633Z" stroke="#204C74" stroke-width="3"/>
<path d="M164.271 50.9599C164.271 66.1709 152.335 78.3691 137.771 78.3691C123.226 78.3691 111.301 66.2007 111.272 51.0156C111.48 46.4693 111.968 43.2094 113.156 40.2336C114.236 37.5303 115.958 34.9053 118.858 31.7237C124.506 32.666 129.1 32.75 133.36 31.5853C137.605 30.4247 141.272 28.0917 145.195 24.6401C156.176 27.9489 164.271 38.4447 164.271 50.9599Z" stroke="#2C6396" stroke-width="5"/>
<path d="M144.771 56.3691C144.771 60.6807 141.472 63.8691 137.771 63.8691C134.071 63.8691 130.771 60.6807 130.771 56.3691C130.771 52.0576 134.071 48.8691 137.771 48.8691C141.472 48.8691 144.771 52.0576 144.771 56.3691Z" stroke="#163767" stroke-width="8"/>
<path d="M169.271 50.9599C169.271 66.1709 181.208 78.3691 195.771 78.3691C210.317 78.3691 222.242 66.2007 222.271 51.0156C222.063 46.4693 221.575 43.2094 220.387 40.2336C219.307 37.5303 217.585 34.9053 214.685 31.7237C209.037 32.666 204.443 32.75 200.183 31.5853C195.938 30.4247 192.271 28.0917 188.348 24.6401C177.367 27.9489 169.271 38.4447 169.271 50.9599Z" stroke="#2C6396" stroke-width="5"/>
<path d="M188.771 44.3691C188.771 48.6807 192.071 51.8691 195.771 51.8691C199.472 51.8691 202.771 48.6807 202.771 44.3691C202.771 40.0576 199.472 36.8691 195.771 36.8691C192.071 36.8691 188.771 40.0576 188.771 44.3691Z" stroke="#163767" stroke-width="8"/>
<rect x="65.2715" y="99.3691" width="205" height="258" rx="8.5" fill="url(#paint0_linear_939_14266)" stroke="#5590D6" stroke-width="3"/>
<defs>
<linearGradient id="paint0_linear_939_14266" x1="167.771" y1="97.8691" x2="167.771" y2="358.869" gradientUnits="userSpaceOnUse">
<stop offset="0.625" stop-color="white"/>
<stop offset="1" stop-color="#E4E1E1"/>
</linearGradient>
</defs>
</svg>
