
<svg width="308" height="384" viewBox="0 0 308 384" fill="none" xmlns="http://www.w3.org/2000/svg">
<path d="M86.7723 71.8633L7.27235 71.8635C7.27235 71.8635 -5.22765 141.37 7.27235 199.37C19.7724 257.37 -1.22629 336.87 7.27235 361.37C15.771 385.87 287.77 390.87 299.271 361.37C310.772 331.87 305.771 255.37 299.271 199.37C292.771 143.37 299.271 71.8636 299.271 71.8636L216.271 71.8635C260.771 34.8661 168.772 -37.6294 153.272 29.3653C128.772 -36.6285 40.2723 48.856 86.7723 71.8633Z" fill="#FFFDF8" stroke="#1B6F1E" stroke-width="3"/>
<path d="M251.342 282.454L249.175 278.515C246.87 274.323 240.986 273.957 238.178 277.83C234.884 282.372 227.773 280.914 226.534 275.441L226.467 275.145C225.291 269.955 218.806 268.17 215.14 272.028L207.781 279.775C205.824 281.834 203.109 283 200.268 283C193.146 283 188.147 290.02 190.477 296.751L197.674 317.544C198.597 320.208 197.72 323.164 195.495 324.895C191.331 328.134 192.477 334.71 197.491 336.349L202.111 337.86C207.258 339.542 209.833 345.296 207.658 350.255L207.425 350.785C204.142 358.27 211.029 366.208 218.903 364.014L222.686 362.96C226.98 361.763 231.581 363.144 234.506 366.508L236.107 368.348C242.887 376.145 255.268 375.195 260.778 366.454L261.262 365.687C263.177 362.65 266.052 360.34 269.431 359.126L281.156 354.912C289.504 351.912 293.888 342.758 290.991 334.374L289.617 330.396C287.925 325.498 289.883 320.084 294.316 317.4C300.228 313.822 301.412 305.742 296.776 300.618L288.355 291.31C287.3 290.145 286.717 288.63 286.717 287.059C286.717 282.658 282.341 279.597 278.207 281.107L262.77 286.742C258.424 288.329 253.571 286.508 251.342 282.454Z" fill="#82BBB5" fill-opacity="0.5"/>
<path d="M233.497 90.656L231.55 86.408C229.815 82.6235 224.552 82.3239 222.4 85.8872C219.939 89.9601 213.75 88.8436 212.868 84.1675L212.662 83.0777C211.771 78.3539 205.738 76.8675 202.755 80.6365L197.173 87.6875C195.516 89.7799 192.994 91 190.325 91C184.514 91 180.324 96.57 181.934 102.154L188.777 125.876C189.507 128.406 188.754 131.132 186.829 132.928C183.068 136.439 184.257 142.673 189.047 144.553L192.127 145.761C196.718 147.562 199.032 152.698 197.339 157.33L196.764 158.903C194.021 166.406 201.168 173.754 208.745 171.22C212.695 169.899 217.047 171.295 219.491 174.668L220.6 176.198C225.871 183.472 236.948 182.677 241.126 174.725L241.959 173.14C243.366 170.461 245.649 168.346 248.427 167.148L256.171 163.809C264.534 160.202 268.912 150.942 266.393 142.19L265.091 137.669C263.766 133.066 265.465 128.125 269.341 125.31C274.492 121.569 275.573 114.33 271.74 109.247L264.126 99.1485C263.32 98.0787 262.883 96.7753 262.883 95.4355C262.883 90.9864 258.316 88.0009 254.241 89.7862L243.529 94.479C239.702 96.1556 235.238 94.4544 233.497 90.656Z" fill="#82BBB5" fill-opacity="0.5"/>
<path d="M303.252 264.271L305.717 276.5L298.609 185.5L296.383 157L283.173 173.688C281.516 175.78 278.994 177 276.325 177C270.514 177 266.324 182.57 267.934 188.154L274.777 211.876C275.507 214.406 274.754 217.132 272.829 218.928C269.068 222.439 270.257 228.673 275.047 230.553L278.127 231.761C282.718 233.562 285.032 238.698 283.339 243.33L281.921 247.211C279.518 253.783 285.778 260.219 292.415 257.999C297.178 256.406 302.26 259.347 303.252 264.271Z" fill="#82BBB5" fill-opacity="0.5"/>
<path d="M38.2212 297.993L32.619 290.206C29.7804 286.261 25.5103 283.251 20.6502 283.206C11.6694 283.124 7.15655 288.442 7.89648 313.883C7.95613 315.933 7.83443 317.996 7.48111 320.017C5.39739 331.937 3.63477 340.856 4.76881 350.304C5.90913 359.803 17.9637 360.312 22.7882 352.05L24.482 349.149C25.8589 346.791 28.4868 345.455 31.2033 345.733C34.7053 346.09 37.9235 343.778 38.7022 340.345L41.0248 330.107C41.8044 326.67 41.135 323.065 39.1742 320.137L36.5749 316.256C34.6747 313.419 35.0483 309.634 37.4664 307.223C39.9486 304.748 40.2684 300.838 38.2212 297.993Z" fill="#82BBB5" fill-opacity="0.5"/>
<path d="M66.4967 135.656L64.5496 131.408C62.8151 127.623 57.5523 127.324 55.3995 130.887C52.9388 134.96 46.7502 133.844 45.8679 129.168L45.6623 128.078C44.771 123.354 38.7384 121.867 35.7545 125.637L30.1725 132.688C28.5161 134.78 25.9939 136 23.3253 136C17.5139 136 13.3235 141.57 14.9342 147.154L21.7773 170.876C22.5071 173.406 21.7542 176.132 19.8294 177.928C16.0676 181.439 17.2571 187.673 22.0473 189.553L25.127 190.761C29.7179 192.562 32.0318 197.698 30.3388 202.33L29.7639 203.903C27.0215 211.406 34.1684 218.754 41.7448 216.22C45.6955 214.899 50.0466 216.295 52.4909 219.668L53.5996 221.198C58.8706 228.472 69.9481 227.677 74.126 219.725L74.9587 218.14C76.3658 215.461 78.6491 213.346 81.4273 212.148L89.1706 208.809C97.5335 205.202 101.912 195.942 99.3927 187.19L98.0913 182.669C96.766 178.066 98.4647 173.125 102.341 170.31C107.492 166.569 108.573 159.33 104.74 154.247L97.1264 144.148C96.3198 143.079 95.8835 141.775 95.8835 140.435C95.8835 135.986 91.3162 133.001 87.241 134.786L76.5293 139.479C72.7022 141.156 68.2375 139.454 66.4967 135.656Z" fill="#82BBB5" fill-opacity="0.5"/>
<path d="M96.8323 325.968L92.7486 328.24C89.1105 330.264 89.2213 335.534 92.9413 337.403C97.1933 339.539 96.5617 345.796 91.9685 347.039L90.898 347.329C86.2578 348.585 85.2453 354.715 89.2351 357.397L96.699 362.413C98.9139 363.902 100.327 366.321 100.534 368.982C100.986 374.776 106.866 378.52 112.307 376.48L135.425 367.812C137.891 366.887 140.666 367.426 142.607 369.205C146.4 372.682 152.523 371.011 154.024 366.089L154.989 362.925C156.427 358.208 161.368 355.501 166.118 356.829L167.73 357.279C175.424 359.43 182.194 351.733 179.078 344.377C177.453 340.541 178.507 336.094 181.68 333.395L183.119 332.17C189.96 326.349 188.306 315.367 180.052 311.821L178.407 311.114C175.628 309.92 173.342 307.808 171.931 305.131L167.999 297.671C163.753 289.614 154.18 285.969 145.65 289.162L141.245 290.811C136.758 292.491 131.701 291.182 128.592 287.537C124.462 282.692 117.161 282.177 112.391 286.394L102.916 294.771C101.912 295.658 100.646 296.194 99.3107 296.299C94.8751 296.645 92.2541 301.43 94.3511 305.354L99.863 315.668C101.832 319.354 100.484 323.937 96.8323 325.968Z" fill="#82BBB5" fill-opacity="0.5"/>
<path d="M150.271 50.9599C150.271 66.1709 138.335 78.3691 123.771 78.3691C109.226 78.3691 97.3007 66.2007 97.2715 51.0156C97.4802 46.4693 97.9676 43.2094 99.1562 40.2336C100.236 37.5303 101.958 34.9053 104.858 31.7237C110.506 32.666 115.1 32.75 119.36 31.5853C123.605 30.4247 127.272 28.0917 131.195 24.6401C142.176 27.9489 150.271 38.4447 150.271 50.9599Z" stroke="#6AD400" stroke-width="5"/>
<path d="M130.771 56.3691C130.771 60.6807 127.472 63.8691 123.771 63.8691C120.071 63.8691 116.771 60.6807 116.771 56.3691C116.771 52.0576 120.071 48.8691 123.771 48.8691C127.472 48.8691 130.771 52.0576 130.771 56.3691Z" stroke="#163767" stroke-width="8"/>
<path d="M155.271 50.9599C155.271 66.1709 167.208 78.3691 181.771 78.3691C196.317 78.3691 208.242 66.2007 208.271 51.0156C208.063 46.4693 207.575 43.2094 206.387 40.2336C205.307 37.5303 203.585 34.9053 200.685 31.7237C195.037 32.666 190.443 32.75 186.183 31.5853C181.938 30.4247 178.271 28.0917 174.348 24.6401C163.367 27.9489 155.271 38.4447 155.271 50.9599Z" stroke="#6AD400" stroke-width="5"/>
<path d="M174.771 44.3691C174.771 48.6807 178.071 51.8691 181.771 51.8691C185.472 51.8691 188.771 48.6807 188.771 44.3691C188.771 40.0576 185.472 36.8691 181.771 36.8691C178.071 36.8691 174.771 40.0576 174.771 44.3691Z" stroke="#163767" stroke-width="8"/>
<rect x="51.2715" y="99.5" width="205" height="258" rx="8.5" fill="url(#paint0_linear_2027_14553)" stroke="#6AD400" stroke-width="3"/>
<defs>
<linearGradient id="paint0_linear_2027_14553" x1="153.771" y1="98" x2="153.771" y2="359" gradientUnits="userSpaceOnUse">
<stop offset="0.625" stop-color="white"/>
<stop offset="1" stop-color="#E4E1E1"/>
</linearGradient>
</defs>
</svg>
